<svg width="304" height="33" viewBox="0 0 304 33" fill="none" xmlns="http://www.w3.org/2000/svg">
<path d="M12.9116 0.0886536C23.2445 0.0886536 29.041 6.3892 29.041 16.05C29.041 25.4588 22.9925 32.0114 12.9116 32.0114H0.478516V0.0886536H12.9116ZM12.7436 25.9629C18.5401 25.9629 21.6483 22.2666 21.6483 16.05C21.6483 9.83349 18.5401 6.13717 12.7436 6.13717H7.70314V25.9629H12.7436Z" fill="#141414"/>
<path d="M42.3981 25.7109H58.8636V32.0114H35.3415V0.0886536H58.4435V6.3892H42.3981V12.6057H54.6632V18.6543H42.3981V25.7109Z" fill="#141414"/>
<path d="M87.8461 6.4732H72.0527V13.2778H84.0657V19.3263H72.0527V32.0114H64.8281V0.0886536H87.8461V6.4732Z" fill="#141414"/>
<path d="M100.279 25.7109H116.745V32.0114H93.2225V0.0886536H116.325V6.3892H100.279V12.6057H112.544V18.6543H100.279V25.7109Z" fill="#141414"/>
<path d="M174.231 0.0886536C184.564 0.0886536 190.36 6.3892 190.36 16.05C190.36 25.4588 184.312 32.0114 174.231 32.0114H161.798V0.0886536H174.231ZM174.063 25.9629C179.859 25.9629 182.968 22.2666 182.968 16.05C182.968 9.83349 179.859 6.13717 174.063 6.13717H169.022V25.9629H174.063Z" fill="#141414"/>
<path d="M210.018 32.4314C202.121 32.4314 196.997 27.391 196.997 19.5783V0.0886536H201.365V19.5783C201.365 25.0388 204.725 28.5671 210.018 28.5671C215.31 28.5671 218.671 25.0388 218.671 19.5783V0.0886536H223.039V19.5783C223.039 27.391 217.915 32.4314 210.018 32.4314Z" fill="#141414"/>
<path d="M253.45 32.0114L250.257 24.0307H234.38L231.188 32.0114H226.651L239.757 0.0886536H244.965L258.07 32.0114H253.45ZM235.892 20.1664H248.661L242.277 4.20501L235.892 20.1664Z" fill="#141414"/>
<path d="M264.203 32.0114V0.0886536H266.975V32.0114H264.203Z" fill="#141414"/>
<path d="M288.649 0.0886536C297.974 0.0886536 303.77 6.22118 303.77 16.05C303.77 25.7949 297.806 32.0114 288.649 32.0114H277.896V0.0886536H288.649ZM288.649 29.4072C296.293 29.4072 300.914 24.3667 300.914 16.05C300.914 7.73331 296.293 2.69288 288.649 2.69288H280.668V29.4072H288.649Z" fill="#141414"/>
</svg>
