<svg width="305" height="33" viewBox="0 0 305 33" fill="none" xmlns="http://www.w3.org/2000/svg">
<path d="M12.8178 0.153285C23.1507 0.153285 28.9472 6.45383 28.9472 16.1147C28.9472 25.5235 22.8987 32.076 12.8178 32.076H0.384766V0.153285H12.8178ZM12.6498 26.0275C18.4463 26.0275 21.5546 22.3312 21.5546 16.1147C21.5546 9.89813 18.4463 6.20181 12.6498 6.20181H7.60939V26.0275H12.6498Z" fill="#141414"/>
<path d="M42.3044 25.7755H58.7698V32.076H35.2478V0.153285H58.3498V6.45383H42.3044V12.6704H54.5694V18.7189H42.3044V25.7755Z" fill="#141414"/>
<path d="M87.7523 6.53784H71.959V13.3424H83.972V19.3909H71.959V32.076H64.7343V0.153285H87.7523V6.53784Z" fill="#141414"/>
<path d="M100.185 25.7755H116.651V32.076H93.1288V0.153285H116.231V6.45383H100.185V12.6704H112.45V18.7189H100.185V25.7755Z" fill="#141414"/>
<path d="M174.137 0.153285C184.47 0.153285 190.266 6.45383 190.266 16.1147C190.266 25.5235 184.218 32.076 174.137 32.076H161.704V0.153285H174.137ZM173.969 26.0275C179.766 26.0275 182.874 22.3312 182.874 16.1147C182.874 9.89813 179.766 6.20181 173.969 6.20181H168.929V26.0275H173.969Z" fill="#141414"/>
<path d="M209.924 32.4961C202.028 32.4961 196.903 27.4556 196.903 19.643V0.153285H201.271V19.643C201.271 25.1034 204.632 28.6317 209.924 28.6317C215.217 28.6317 218.577 25.1034 218.577 19.643V0.153285H222.945V19.643C222.945 27.4556 217.821 32.4961 209.924 32.4961Z" fill="#141414"/>
<path d="M253.356 32.076L250.164 24.0954H234.286L231.094 32.076H226.558L239.663 0.153285H244.871L257.976 32.076H253.356ZM235.798 20.231H248.568L242.183 4.26964L235.798 20.231Z" fill="#141414"/>
<path d="M264.109 32.076V0.153285H266.881V32.076H264.109Z" fill="#141414"/>
<path d="M288.555 0.153285C297.88 0.153285 303.676 6.28581 303.676 16.1147C303.676 25.8595 297.712 32.076 288.555 32.076H277.802V0.153285H288.555ZM288.555 29.4718C296.2 29.4718 300.82 24.4314 300.82 16.1147C300.82 7.79795 296.2 2.75751 288.555 2.75751H280.574V29.4718H288.555Z" fill="#141414"/>
<path d="M153.522 0.0646057H146.138V32.0646H153.522V0.0646057Z" fill="#141414"/>
<path d="M130.835 0.149356L123.984 3.72952L139.345 31.7607L146.196 28.1805L130.835 0.149356Z" fill="#141414"/>
<path d="M132.599 19.5249H124.834V32.0646H132.599V19.5249Z" fill="#141414"/>
</svg>
