<svg width="18" height="18" viewBox="0 0 18 18" fill="none" xmlns="http://www.w3.org/2000/svg">
<path d="M16.5 16.5L11.5 11.5M1.5 7.33333C1.5 8.09938 1.65088 8.85792 1.94404 9.56565C2.23719 10.2734 2.66687 10.9164 3.20854 11.4581C3.75022 11.9998 4.39328 12.4295 5.10101 12.7226C5.80875 13.0158 6.56729 13.1667 7.33333 13.1667C8.09938 13.1667 8.85792 13.0158 9.56565 12.7226C10.2734 12.4295 10.9164 11.9998 11.4581 11.4581C11.9998 10.9164 12.4295 10.2734 12.7226 9.56565C13.0158 8.85792 13.1667 8.09938 13.1667 7.33333C13.1667 6.56729 13.0158 5.80875 12.7226 5.10101C12.4295 4.39328 11.9998 3.75022 11.4581 3.20854C10.9164 2.66687 10.2734 2.23719 9.56565 1.94404C8.85792 1.65088 8.09938 1.5 7.33333 1.5C6.56729 1.5 5.80875 1.65088 5.10101 1.94404C4.39328 2.23719 3.75022 2.66687 3.20854 3.20854C2.66687 3.75022 2.23719 4.39328 1.94404 5.10101C1.65088 5.80875 1.5 6.56729 1.5 7.33333Z" stroke="#C7C7C8" stroke-width="2" stroke-linecap="round" stroke-linejoin="round"/>
</svg>
