<svg width="54" height="14" viewBox="0 0 54 14" fill="none" xmlns="http://www.w3.org/2000/svg">
<path d="M5.05094 0.036026C9.24867 0.036026 11.6035 2.59562 11.6035 6.52034C11.6035 10.3427 9.14629 13.0046 5.05094 13.0046H0V0.036026H5.05094ZM4.98268 10.5474C7.33751 10.5474 8.60024 9.0458 8.60024 6.52034C8.60024 3.99487 7.33751 2.49324 4.98268 2.49324H2.935V10.5474H4.98268Z" fill="#141414"/>
<path d="M24.0966 2.62975H17.6805V5.39411H22.5608V7.85133H17.6805V13.0046H14.7455V0.036026H24.0966V2.62975Z" fill="#141414"/>
<path d="M47.0509 0.036026C51.2487 0.036026 53.6035 2.59562 53.6035 6.52034C53.6035 10.3427 51.1463 13.0046 47.0509 13.0046H42V0.036026H47.0509ZM46.9827 10.5474C49.3375 10.5474 50.6002 9.0458 50.6002 6.52034C50.6002 3.99487 49.3375 2.49324 46.9827 2.49324H44.935V10.5474H46.9827Z" fill="#141414"/>
<path d="M38.8157 0H35.8157V13H38.8157V0Z" fill="#141414"/>
<path d="M29.5989 0.0344298L26.8156 1.48887L33.056 12.8765L35.8393 11.4221L29.5989 0.0344298Z" fill="#141414"/>
<path d="M30.3157 7.90575H27.1611V13H30.3157V7.90575Z" fill="#141414"/>
</svg>
